# xmcd CD database file
#
# Track frame offsets:
#	182
#	14317
#	30045
#	43702
#	54220
#	65710
#	80517
#	93457
#	110365
#	123337
#	137440
#	150607
#	163300
#	175430
#
# Disc length: 2494 seconds
#
# Revision: 1
# Processed by: cddbd v1.5.1PL0 Copyright (c) Steve Scherf et al.
# Submitted via: CDex 1.51
#
DISCID=ad09bc0e
DTITLE=Trampske - Potlach na Ztracence
DYEAR=1900
DGENRE=Country
TTITLE0=Bessie
TTITLE1=Mesic sviti stribrny
TTITLE2=Skuner
TTITLE3=Pojdte vsichni ven
TTITLE4=Trampska romance
TTITLE5=Osada(O Mary)
TTITLE6=Serzant
TTITLE7=Leti sip
TTITLE8=Kdyz slunicko sviti
TTITLE9=Posledni mile
TTITLE10=Sna toulaci
TTITLE11=Uz je tomu davno
TTITLE12=Muj placek nad rekou
TTITLE13=Zpoved
EXTD=
EXTT0=
EXTT1=
EXTT2=
EXTT3=
EXTT4=
EXTT5=
EXTT6=
EXTT7=
EXTT8=
EXTT9=
EXTT10=
EXTT11=
EXTT12=
EXTT13=
PLAYORDER=
